# MagicaVoxel @ Ephtracy

# group
o 

# material
mtllib 01stina.mtl
usemtl palette

# normals
vn -1 0 0
vn 1 0 0
vn 0 0 1
vn 0 0 -1
vn 0 -1 0
vn 0 1 0

# texcoords
vt 0.00195313 0.5
vt 0.0214844 0.5
vt 0.0332031 0.5
vt 0.0566406 0.5

# verts
v -1.8 0 1.9
v -1.8 0 -1.6
v -1.8 0.1 1.9
v -1.8 0.1 -1.4
v -1.8 0.1 -1.6
v -1.8 0.1 -2
v -1.8 3.5 -1.4
v -1.8 3.5 -2
v -1.4 0.3 -1.3
v -1.4 0.3 -1.4
v -1.4 3 -1.3
v -1.4 3 -1.4
v -1.3 0.1 1.8
v -1.3 0.1 -1
v -1.3 0.2 1.8
v -1.3 0.2 -1
v -1.2 0.5 -1.2
v -1.2 0.5 -1.3
v -1.2 2.7 -1.2
v -1.2 2.7 -1.3
v -1.1 0.2 1.6
v -1.1 0.2 -0.5
v -1.1 0.3 1.6
v -1.1 0.3 -0.5
v 1.1 0.2 1.6
v 1.1 0.2 -0.5
v 1.1 0.3 1.6
v 1.1 0.3 -0.5
v 1.2 0.5 -1.2
v 1.2 0.5 -1.3
v 1.2 2.7 -1.2
v 1.2 2.7 -1.3
v 1.3 0.1 1.8
v 1.3 0.1 -1
v 1.3 0.2 1.8
v 1.3 0.2 -1
v 1.4 0.3 -1.3
v 1.4 0.3 -1.4
v 1.4 3 -1.3
v 1.4 3 -1.4
v 1.8 0 1.9
v 1.8 0 -1.6
v 1.8 0.1 1.9
v 1.8 0.1 -1.4
v 1.8 0.1 -1.6
v 1.8 0.1 -2
v 1.8 3.5 -1.4
v 1.8 3.5 -2
v -1.8 0 1.9
v -1.8 0.1 1.9
v 1.8 0 1.9
v 1.8 0.1 1.9
v -1.3 0.1 1.8
v -1.3 0.2 1.8
v 1.3 0.1 1.8
v 1.3 0.2 1.8
v -1.1 0.2 1.6
v -1.1 0.3 1.6
v 1.1 0.2 1.6
v 1.1 0.3 1.6
v -1.2 0.5 -1.2
v -1.2 2.7 -1.2
v 1.2 0.5 -1.2
v 1.2 2.7 -1.2
v -1.4 0.3 -1.3
v -1.4 3 -1.3
v -1.2 0.5 -1.3
v -1.2 2.7 -1.3
v 1.2 0.5 -1.3
v 1.2 2.7 -1.3
v 1.4 0.3 -1.3
v 1.4 3 -1.3
v -1.8 0.1 -1.4
v -1.8 3.5 -1.4
v -1.4 0.3 -1.4
v -1.4 3 -1.4
v 1.4 0.3 -1.4
v 1.4 3 -1.4
v 1.8 0.1 -1.4
v 1.8 3.5 -1.4
v -1.1 0.2 -0.5
v -1.1 0.3 -0.5
v 1.1 0.2 -0.5
v 1.1 0.3 -0.5
v -1.3 0.1 -1
v -1.3 0.2 -1
v 1.3 0.1 -1
v 1.3 0.2 -1
v -1.8 0 -1.6
v -1.8 0.1 -1.6
v 1.8 0 -1.6
v 1.8 0.1 -1.6
v -1.8 0.1 -2
v -1.8 3.5 -2
v 1.8 0.1 -2
v 1.8 3.5 -2
v -1.8 0 1.9
v 1.8 0 1.9
v -1.8 0 -1.6
v 1.8 0 -1.6
v -1.8 0.1 -1.6
v 1.8 0.1 -1.6
v -1.8 0.1 -2
v 1.8 0.1 -2
v -1.4 0.3 -1.3
v 1.4 0.3 -1.3
v -1.4 0.3 -1.4
v 1.4 0.3 -1.4
v -1.2 0.5 -1.2
v 1.2 0.5 -1.2
v -1.2 0.5 -1.3
v 1.2 0.5 -1.3
v -1.8 0.1 1.9
v 1.8 0.1 1.9
v -1.3 0.1 1.8
v 1.3 0.1 1.8
v -1.3 0.1 -1
v 1.3 0.1 -1
v -1.8 0.1 -1.4
v 1.8 0.1 -1.4
v -1.3 0.2 1.8
v 1.3 0.2 1.8
v -1.1 0.2 1.6
v 1.1 0.2 1.6
v -1.1 0.2 -0.5
v 1.1 0.2 -0.5
v -1.3 0.2 -1
v 1.3 0.2 -1
v -1.1 0.3 1.6
v 1.1 0.3 1.6
v -1.1 0.3 -0.5
v 1.1 0.3 -0.5
v -1.2 2.7 -1.2
v 1.2 2.7 -1.2
v -1.2 2.7 -1.3
v 1.2 2.7 -1.3
v -1.4 3 -1.3
v 1.4 3 -1.3
v -1.4 3 -1.4
v 1.4 3 -1.4
v -1.8 3.5 -1.4
v 1.8 3.5 -1.4
v -1.8 3.5 -2
v 1.8 3.5 -2

# faces
f 3/3/1 2/3/1 1/3/1
f 4/3/1 2/3/1 3/3/1
f 5/3/1 2/3/1 4/3/1
f 7/2/1 6/2/1 5/2/1
f 7/2/1 5/2/1 4/2/1
f 8/2/1 6/2/1 7/2/1
f 11/4/1 10/4/1 9/4/1
f 12/4/1 10/4/1 11/4/1
f 15/4/1 14/4/1 13/4/1
f 16/4/1 14/4/1 15/4/1
f 19/1/1 18/1/1 17/1/1
f 20/1/1 18/1/1 19/1/1
f 23/1/1 22/1/1 21/1/1
f 24/1/1 22/1/1 23/1/1
f 25/1/2 26/1/2 27/1/2
f 27/1/2 26/1/2 28/1/2
f 29/1/2 30/1/2 31/1/2
f 31/1/2 30/1/2 32/1/2
f 33/4/2 34/4/2 35/4/2
f 35/4/2 34/4/2 36/4/2
f 37/4/2 38/4/2 39/4/2
f 39/4/2 38/4/2 40/4/2
f 41/3/2 42/3/2 43/3/2
f 43/3/2 42/3/2 44/3/2
f 44/3/2 42/3/2 45/3/2
f 45/2/2 46/2/2 47/2/2
f 44/2/2 45/2/2 47/2/2
f 47/2/2 46/2/2 48/2/2
f 51/3/3 50/3/3 49/3/3
f 52/3/3 50/3/3 51/3/3
f 55/4/3 54/4/3 53/4/3
f 56/4/3 54/4/3 55/4/3
f 59/1/3 58/1/3 57/1/3
f 60/1/3 58/1/3 59/1/3
f 63/1/3 62/1/3 61/1/3
f 64/1/3 62/1/3 63/1/3
f 67/4/3 66/4/3 65/4/3
f 68/4/3 66/4/3 67/4/3
f 69/4/3 67/4/3 65/4/3
f 70/4/3 66/4/3 68/4/3
f 71/4/3 69/4/3 65/4/3
f 71/4/3 70/4/3 69/4/3
f 72/4/3 66/4/3 70/4/3
f 72/4/3 70/4/3 71/4/3
f 75/2/3 74/2/3 73/2/3
f 76/2/3 74/2/3 75/2/3
f 77/2/3 75/2/3 73/2/3
f 78/2/3 74/2/3 76/2/3
f 79/2/3 77/2/3 73/2/3
f 79/2/3 78/2/3 77/2/3
f 80/2/3 74/2/3 78/2/3
f 80/2/3 78/2/3 79/2/3
f 81/1/4 82/1/4 83/1/4
f 83/1/4 82/1/4 84/1/4
f 85/4/4 86/4/4 87/4/4
f 87/4/4 86/4/4 88/4/4
f 89/3/4 90/3/4 91/3/4
f 91/3/4 90/3/4 92/3/4
f 93/2/4 94/2/4 95/2/4
f 95/2/4 94/2/4 96/2/4
f 99/3/5 98/3/5 97/3/5
f 100/3/5 98/3/5 99/3/5
f 103/2/5 102/2/5 101/2/5
f 104/2/5 102/2/5 103/2/5
f 107/4/5 106/4/5 105/4/5
f 108/4/5 106/4/5 107/4/5
f 111/1/5 110/1/5 109/1/5
f 112/1/5 110/1/5 111/1/5
f 113/3/6 114/3/6 115/3/6
f 115/3/6 114/3/6 116/3/6
f 113/3/6 115/3/6 117/3/6
f 116/3/6 114/3/6 118/3/6
f 113/3/6 117/3/6 119/3/6
f 117/3/6 118/3/6 119/3/6
f 118/3/6 114/3/6 120/3/6
f 119/3/6 118/3/6 120/3/6
f 121/4/6 122/4/6 123/4/6
f 123/4/6 122/4/6 124/4/6
f 121/4/6 123/4/6 125/4/6
f 124/4/6 122/4/6 126/4/6
f 121/4/6 125/4/6 127/4/6
f 125/4/6 126/4/6 127/4/6
f 126/4/6 122/4/6 128/4/6
f 127/4/6 126/4/6 128/4/6
f 129/1/6 130/1/6 131/1/6
f 131/1/6 130/1/6 132/1/6
f 133/1/6 134/1/6 135/1/6
f 135/1/6 134/1/6 136/1/6
f 137/4/6 138/4/6 139/4/6
f 139/4/6 138/4/6 140/4/6
f 141/2/6 142/2/6 143/2/6
f 143/2/6 142/2/6 144/2/6
