# MagicaVoxel @ Ephtracy

# group
o 

# material
mtllib 02stina.mtl
usemtl palette

# normals
vn -1 0 0
vn 1 0 0
vn 0 0 1
vn 0 0 -1
vn 0 -1 0
vn 0 1 0

# texcoords
vt 0.00195313 0.5
vt 0.0332031 0.5
vt 0.0566406 0.5
vt 0.841797 0.5

# verts
v -1.8 0 1.9
v -1.8 0 -1.6
v -1.8 0.1 1.9
v -1.8 0.1 -1.4
v -1.8 0.1 -1.6
v -1.8 0.1 -2
v -1.8 3.5 -1.4
v -1.8 3.5 -2
v -1.4 0.3 -1.3
v -1.4 0.3 -1.4
v -1.4 3 -1.3
v -1.4 3 -1.4
v -1.3 0.1 1.8
v -1.3 0.1 -1
v -1.3 0.2 1.8
v -1.3 0.2 -1
v -1.2 0.5 -1.2
v -1.2 0.5 -1.3
v -1.2 2.7 -1.2
v -1.2 2.7 -1.3
v -1.1 0.2 1.6
v -1.1 0.2 -0.5
v -1.1 0.3 1.6
v -1.1 0.3 -0.5
v 1.1 0.2 1.6
v 1.1 0.2 -0.5
v 1.1 0.3 1.6
v 1.1 0.3 -0.5
v 1.2 0.5 -1.2
v 1.2 0.5 -1.3
v 1.2 2.7 -1.2
v 1.2 2.7 -1.3
v 1.3 0.1 1.8
v 1.3 0.1 -1
v 1.3 0.2 1.8
v 1.3 0.2 -1
v 1.4 0.3 -1.3
v 1.4 0.3 -1.4
v 1.4 3 -1.3
v 1.4 3 -1.4
v 1.8 0 1.9
v 1.8 0 -1.6
v 1.8 0.1 1.9
v 1.8 0.1 -1.4
v 1.8 0.1 -1.6
v 1.8 0.1 -2
v 1.8 3.5 -1.4
v 1.8 3.5 -2
v -1.8 0 1.9
v -1.8 0.1 1.9
v 1.8 0 1.9
v 1.8 0.1 1.9
v -1.3 0.1 1.8
v -1.3 0.2 1.8
v 1.3 0.1 1.8
v 1.3 0.2 1.8
v -1.1 0.2 1.6
v -1.1 0.3 1.6
v 1.1 0.2 1.6
v 1.1 0.3 1.6
v -1.2 0.5 -1.2
v -1.2 2.7 -1.2
v 1.2 0.5 -1.2
v 1.2 2.7 -1.2
v -1.4 0.3 -1.3
v -1.4 3 -1.3
v -1.2 0.5 -1.3
v -1.2 2.7 -1.3
v 1.2 0.5 -1.3
v 1.2 2.7 -1.3
v 1.4 0.3 -1.3
v 1.4 3 -1.3
v -1.8 0.1 -1.4
v -1.8 3.5 -1.4
v -1.4 0.3 -1.4
v -1.4 3 -1.4
v 1.4 0.3 -1.4
v 1.4 3 -1.4
v 1.8 0.1 -1.4
v 1.8 3.5 -1.4
v -1.1 0.2 -0.5
v -1.1 0.3 -0.5
v 1.1 0.2 -0.5
v 1.1 0.3 -0.5
v -1.3 0.1 -1
v -1.3 0.2 -1
v 1.3 0.1 -1
v 1.3 0.2 -1
v -1.8 0 -1.6
v -1.8 0.1 -1.6
v 1.8 0 -1.6
v 1.8 0.1 -1.6
v -1.8 0.1 -2
v -1.8 3.5 -2
v 1.8 0.1 -2
v 1.8 3.5 -2
v -1.8 0 1.9
v 1.8 0 1.9
v -1.8 0 -1.6
v 1.8 0 -1.6
v -1.8 0.1 -1.6
v 1.8 0.1 -1.6
v -1.8 0.1 -2
v 1.8 0.1 -2
v -1.4 0.3 -1.3
v 1.4 0.3 -1.3
v -1.4 0.3 -1.4
v 1.4 0.3 -1.4
v -1.2 0.5 -1.2
v 1.2 0.5 -1.2
v -1.2 0.5 -1.3
v 1.2 0.5 -1.3
v -1.8 0.1 1.9
v 1.8 0.1 1.9
v -1.3 0.1 1.8
v 1.3 0.1 1.8
v -1.3 0.1 -1
v 1.3 0.1 -1
v -1.8 0.1 -1.4
v 1.8 0.1 -1.4
v -1.3 0.2 1.8
v 1.3 0.2 1.8
v -1.1 0.2 1.6
v 1.1 0.2 1.6
v -1.1 0.2 -0.5
v 1.1 0.2 -0.5
v -1.3 0.2 -1
v 1.3 0.2 -1
v -1.1 0.3 1.6
v 1.1 0.3 1.6
v -1.1 0.3 -0.5
v 1.1 0.3 -0.5
v -1.2 2.7 -1.2
v 1.2 2.7 -1.2
v -1.2 2.7 -1.3
v 1.2 2.7 -1.3
v -1.4 3 -1.3
v 1.4 3 -1.3
v -1.4 3 -1.4
v 1.4 3 -1.4
v -1.8 3.5 -1.4
v 1.8 3.5 -1.4
v -1.8 3.5 -2
v 1.8 3.5 -2

# faces
f 3/2/1 2/2/1 1/2/1
f 4/2/1 2/2/1 3/2/1
f 5/2/1 2/2/1 4/2/1
f 7/4/1 6/4/1 5/4/1
f 7/4/1 5/4/1 4/4/1
f 8/4/1 6/4/1 7/4/1
f 11/3/1 10/3/1 9/3/1
f 12/3/1 10/3/1 11/3/1
f 15/3/1 14/3/1 13/3/1
f 16/3/1 14/3/1 15/3/1
f 19/1/1 18/1/1 17/1/1
f 20/1/1 18/1/1 19/1/1
f 23/1/1 22/1/1 21/1/1
f 24/1/1 22/1/1 23/1/1
f 25/1/2 26/1/2 27/1/2
f 27/1/2 26/1/2 28/1/2
f 29/1/2 30/1/2 31/1/2
f 31/1/2 30/1/2 32/1/2
f 33/3/2 34/3/2 35/3/2
f 35/3/2 34/3/2 36/3/2
f 37/3/2 38/3/2 39/3/2
f 39/3/2 38/3/2 40/3/2
f 41/2/2 42/2/2 43/2/2
f 43/2/2 42/2/2 44/2/2
f 44/2/2 42/2/2 45/2/2
f 45/4/2 46/4/2 47/4/2
f 44/4/2 45/4/2 47/4/2
f 47/4/2 46/4/2 48/4/2
f 51/2/3 50/2/3 49/2/3
f 52/2/3 50/2/3 51/2/3
f 55/3/3 54/3/3 53/3/3
f 56/3/3 54/3/3 55/3/3
f 59/1/3 58/1/3 57/1/3
f 60/1/3 58/1/3 59/1/3
f 63/1/3 62/1/3 61/1/3
f 64/1/3 62/1/3 63/1/3
f 67/3/3 66/3/3 65/3/3
f 68/3/3 66/3/3 67/3/3
f 69/3/3 67/3/3 65/3/3
f 70/3/3 66/3/3 68/3/3
f 71/3/3 69/3/3 65/3/3
f 71/3/3 70/3/3 69/3/3
f 72/3/3 66/3/3 70/3/3
f 72/3/3 70/3/3 71/3/3
f 75/4/3 74/4/3 73/4/3
f 76/4/3 74/4/3 75/4/3
f 77/4/3 75/4/3 73/4/3
f 78/4/3 74/4/3 76/4/3
f 79/4/3 77/4/3 73/4/3
f 79/4/3 78/4/3 77/4/3
f 80/4/3 74/4/3 78/4/3
f 80/4/3 78/4/3 79/4/3
f 81/1/4 82/1/4 83/1/4
f 83/1/4 82/1/4 84/1/4
f 85/3/4 86/3/4 87/3/4
f 87/3/4 86/3/4 88/3/4
f 89/2/4 90/2/4 91/2/4
f 91/2/4 90/2/4 92/2/4
f 93/4/4 94/4/4 95/4/4
f 95/4/4 94/4/4 96/4/4
f 99/2/5 98/2/5 97/2/5
f 100/2/5 98/2/5 99/2/5
f 103/4/5 102/4/5 101/4/5
f 104/4/5 102/4/5 103/4/5
f 107/3/5 106/3/5 105/3/5
f 108/3/5 106/3/5 107/3/5
f 111/1/5 110/1/5 109/1/5
f 112/1/5 110/1/5 111/1/5
f 113/2/6 114/2/6 115/2/6
f 115/2/6 114/2/6 116/2/6
f 113/2/6 115/2/6 117/2/6
f 116/2/6 114/2/6 118/2/6
f 113/2/6 117/2/6 119/2/6
f 117/2/6 118/2/6 119/2/6
f 118/2/6 114/2/6 120/2/6
f 119/2/6 118/2/6 120/2/6
f 121/3/6 122/3/6 123/3/6
f 123/3/6 122/3/6 124/3/6
f 121/3/6 123/3/6 125/3/6
f 124/3/6 122/3/6 126/3/6
f 121/3/6 125/3/6 127/3/6
f 125/3/6 126/3/6 127/3/6
f 126/3/6 122/3/6 128/3/6
f 127/3/6 126/3/6 128/3/6
f 129/1/6 130/1/6 131/1/6
f 131/1/6 130/1/6 132/1/6
f 133/1/6 134/1/6 135/1/6
f 135/1/6 134/1/6 136/1/6
f 137/3/6 138/3/6 139/3/6
f 139/3/6 138/3/6 140/3/6
f 141/4/6 142/4/6 143/4/6
f 143/4/6 142/4/6 144/4/6
