# MagicaVoxel @ Ephtracy

# group
o 

# material
mtllib panelSB.mtl
usemtl palette

# normals
vn -1 0 0
vn 1 0 0
vn 0 0 1
vn 0 0 -1
vn 0 -1 0
vn 0 1 0

# texcoords
vt 0.00195313 0.5
vt 0.00976563 0.5
vt 0.0292969 0.5
vt 0.0527344 0.5
vt 0.994141 0.5

# verts
v -1.6 0.5 -1.9
v -1.6 0.5 -2
v -1.6 3.3 -1.9
v -1.6 3.3 -2
v -1.4 0.9 -1.8
v -1.4 0.9 -1.9
v -1.4 2.9 -1.8
v -1.4 2.9 -1.9
v -1.3 3 -1.8
v -1.3 3 -1.9
v -1.3 3.3 -1.9
v -1.3 3.3 -2
v -1.3 3.7 -1.8
v -1.3 3.7 -2
v -1.2 3.3 -1.7
v -1.2 3.3 -1.8
v -1.2 3.4 -1.7
v -1.2 3.4 -1.8
v -1.1 1.9 -1.7
v -1.1 1.9 -1.8
v -1.1 2.5 -1.7
v -1.1 2.5 -1.8
v -1 2 -1.6
v -1 2 -1.7
v -1 2.4 -1.6
v -1 2.4 -1.7
v 0.9 3.3 -1.7
v 0.9 3.3 -1.8
v 0.9 3.4 -1.7
v 0.9 3.4 -1.8
v -0.9 3.3 -1.7
v -0.9 3.3 -1.8
v -0.9 3.4 -1.7
v -0.9 3.4 -1.8
v 1.1 2 -1.6
v 1.1 2 -1.7
v 1.1 2.4 -1.6
v 1.1 2.4 -1.7
v 1.2 1.9 -1.7
v 1.2 1.9 -1.8
v 1.2 2.5 -1.7
v 1.2 2.5 -1.8
v 1.2 3.3 -1.7
v 1.2 3.3 -1.8
v 1.2 3.4 -1.7
v 1.2 3.4 -1.8
v 1.3 3 -1.8
v 1.3 3 -1.9
v 1.3 3.3 -1.9
v 1.3 3.3 -2
v 1.3 3.7 -1.8
v 1.3 3.7 -2
v 1.5 0.9 -1.8
v 1.5 0.9 -1.9
v 1.5 2.9 -1.8
v 1.5 2.9 -1.9
v 1.7 0.5 -1.9
v 1.7 0.5 -2
v 1.7 3.3 -1.9
v 1.7 3.3 -2
v -1 2 -1.6
v -1 2.4 -1.6
v 1.1 2 -1.6
v 1.1 2.4 -1.6
v -1.2 3.3 -1.7
v -1.2 3.4 -1.7
v -1.1 1.9 -1.7
v -1.1 2.5 -1.7
v -1 2 -1.7
v -1 2.4 -1.7
v -0.9 3.3 -1.7
v -0.9 3.4 -1.7
v 0.9 3.3 -1.7
v 0.9 3.4 -1.7
v 1.1 2 -1.7
v 1.1 2.4 -1.7
v 1.2 1.9 -1.7
v 1.2 2.5 -1.7
v 1.2 3.3 -1.7
v 1.2 3.4 -1.7
v -1.4 0.9 -1.8
v -1.4 2.9 -1.8
v -1.3 3 -1.8
v -1.3 3.7 -1.8
v -1.2 3.3 -1.8
v -1.2 3.4 -1.8
v -1.1 1.9 -1.8
v -1.1 2.5 -1.8
v -0.9 3.3 -1.8
v -0.9 3.4 -1.8
v 0.9 3.3 -1.8
v 0.9 3.4 -1.8
v 1.2 1.9 -1.8
v 1.2 2.5 -1.8
v 1.2 3.3 -1.8
v 1.2 3.4 -1.8
v 1.3 3 -1.8
v 1.3 3.7 -1.8
v 1.5 0.9 -1.8
v 1.5 2.9 -1.8
v -1.6 0.5 -1.9
v -1.6 3.3 -1.9
v -1.4 0.9 -1.9
v -1.4 2.9 -1.9
v -1.3 3 -1.9
v -1.3 3.3 -1.9
v 1.3 3 -1.9
v 1.3 3.3 -1.9
v 1.5 0.9 -1.9
v 1.5 2.9 -1.9
v 1.7 0.5 -1.9
v 1.7 3.3 -1.9
v -1.6 0.5 -2
v -1.6 3.3 -2
v -1.3 3.3 -2
v -1.3 3.7 -2
v 1.3 3.3 -2
v 1.3 3.7 -2
v 1.7 0.5 -2
v 1.7 3.3 -2
v -1.6 0.5 -1.9
v 1.7 0.5 -1.9
v -1.6 0.5 -2
v 1.7 0.5 -2
v -1.4 0.9 -1.8
v 1.5 0.9 -1.8
v -1.4 0.9 -1.9
v 1.5 0.9 -1.9
v -1.1 1.9 -1.7
v 1.2 1.9 -1.7
v -1.1 1.9 -1.8
v 1.2 1.9 -1.8
v -1 2 -1.6
v 1.1 2 -1.6
v -1 2 -1.7
v 1.1 2 -1.7
v -1.3 3 -1.8
v 1.3 3 -1.8
v -1.3 3 -1.9
v 1.3 3 -1.9
v -1.2 3.3 -1.7
v -0.9 3.3 -1.7
v 0.9 3.3 -1.7
v 1.2 3.3 -1.7
v -1.2 3.3 -1.8
v -0.9 3.3 -1.8
v 0.9 3.3 -1.8
v 1.2 3.3 -1.8
v -1 2.4 -1.6
v 1.1 2.4 -1.6
v -1 2.4 -1.7
v 1.1 2.4 -1.7
v -1.1 2.5 -1.7
v 1.2 2.5 -1.7
v -1.1 2.5 -1.8
v 1.2 2.5 -1.8
v -1.4 2.9 -1.8
v 1.5 2.9 -1.8
v -1.4 2.9 -1.9
v 1.5 2.9 -1.9
v -1.6 3.3 -1.9
v -1.3 3.3 -1.9
v 1.3 3.3 -1.9
v 1.7 3.3 -1.9
v -1.6 3.3 -2
v -1.3 3.3 -2
v 1.3 3.3 -2
v 1.7 3.3 -2
v -1.2 3.4 -1.7
v -0.9 3.4 -1.7
v 0.9 3.4 -1.7
v 1.2 3.4 -1.7
v -1.2 3.4 -1.8
v -0.9 3.4 -1.8
v 0.9 3.4 -1.8
v 1.2 3.4 -1.8
v -1.3 3.7 -1.8
v 1.3 3.7 -1.8
v -1.3 3.7 -2
v 1.3 3.7 -2

# faces
f 3/3/1 2/3/1 1/3/1
f 4/3/1 2/3/1 3/3/1
f 7/2/1 6/2/1 5/2/1
f 8/2/1 6/2/1 7/2/1
f 11/4/1 10/4/1 9/4/1
f 13/4/1 11/4/1 9/4/1
f 13/4/1 12/4/1 11/4/1
f 14/4/1 12/4/1 13/4/1
f 17/5/1 16/5/1 15/5/1
f 18/5/1 16/5/1 17/5/1
f 21/4/1 20/4/1 19/4/1
f 22/4/1 20/4/1 21/4/1
f 25/1/1 24/1/1 23/1/1
f 26/1/1 24/1/1 25/1/1
f 29/5/1 28/5/1 27/5/1
f 30/5/1 28/5/1 29/5/1
f 31/5/2 32/5/2 33/5/2
f 33/5/2 32/5/2 34/5/2
f 35/1/2 36/1/2 37/1/2
f 37/1/2 36/1/2 38/1/2
f 39/4/2 40/4/2 41/4/2
f 41/4/2 40/4/2 42/4/2
f 43/5/2 44/5/2 45/5/2
f 45/5/2 44/5/2 46/5/2
f 47/4/2 48/4/2 49/4/2
f 47/4/2 49/4/2 51/4/2
f 49/4/2 50/4/2 51/4/2
f 51/4/2 50/4/2 52/4/2
f 53/2/2 54/2/2 55/2/2
f 55/2/2 54/2/2 56/2/2
f 57/3/2 58/3/2 59/3/2
f 59/3/2 58/3/2 60/3/2
f 63/1/3 62/1/3 61/1/3
f 64/1/3 62/1/3 63/1/3
f 69/4/3 68/4/3 67/4/3
f 70/4/3 68/4/3 69/4/3
f 71/5/3 66/5/3 65/5/3
f 72/5/3 66/5/3 71/5/3
f 75/4/3 69/4/3 67/4/3
f 76/4/3 68/4/3 70/4/3
f 77/4/3 75/4/3 67/4/3
f 77/4/3 76/4/3 75/4/3
f 78/4/3 68/4/3 76/4/3
f 78/4/3 76/4/3 77/4/3
f 79/5/3 74/5/3 73/5/3
f 80/5/3 74/5/3 79/5/3
f 85/4/3 84/4/3 83/4/3
f 86/4/3 84/4/3 85/4/3
f 87/2/3 82/2/3 81/2/3
f 88/2/3 82/2/3 87/2/3
f 89/4/3 85/4/3 83/4/3
f 90/4/3 84/4/3 86/4/3
f 91/4/3 89/4/3 83/4/3
f 91/4/3 90/4/3 89/4/3
f 92/4/3 84/4/3 90/4/3
f 92/4/3 90/4/3 91/4/3
f 93/2/3 87/2/3 81/2/3
f 94/2/3 82/2/3 88/2/3
f 95/4/3 91/4/3 83/4/3
f 96/4/3 84/4/3 92/4/3
f 97/4/3 95/4/3 83/4/3
f 97/4/3 96/4/3 95/4/3
f 98/4/3 84/4/3 96/4/3
f 98/4/3 96/4/3 97/4/3
f 99/2/3 94/2/3 93/2/3
f 99/2/3 93/2/3 81/2/3
f 100/2/3 82/2/3 94/2/3
f 100/2/3 94/2/3 99/2/3
f 103/3/3 102/3/3 101/3/3
f 104/3/3 102/3/3 103/3/3
f 105/3/3 102/3/3 104/3/3
f 106/3/3 102/3/3 105/3/3
f 107/3/3 105/3/3 104/3/3
f 109/3/3 103/3/3 101/3/3
f 110/3/3 108/3/3 107/3/3
f 110/3/3 107/3/3 104/3/3
f 111/3/3 109/3/3 101/3/3
f 111/3/3 110/3/3 109/3/3
f 112/3/3 108/3/3 110/3/3
f 112/3/3 110/3/3 111/3/3
f 113/3/4 114/3/4 115/3/4
f 113/3/4 115/3/4 117/3/4
f 115/4/4 116/4/4 117/4/4
f 117/4/4 116/4/4 118/4/4
f 113/3/4 117/3/4 119/3/4
f 119/3/4 117/3/4 120/3/4
f 123/3/5 122/3/5 121/3/5
f 124/3/5 122/3/5 123/3/5
f 127/2/5 126/2/5 125/2/5
f 128/2/5 126/2/5 127/2/5
f 131/4/5 130/4/5 129/4/5
f 132/4/5 130/4/5 131/4/5
f 135/1/5 134/1/5 133/1/5
f 136/1/5 134/1/5 135/1/5
f 139/4/5 138/4/5 137/4/5
f 140/4/5 138/4/5 139/4/5
f 145/5/5 142/5/5 141/5/5
f 146/5/5 142/5/5 145/5/5
f 147/5/5 144/5/5 143/5/5
f 148/5/5 144/5/5 147/5/5
f 149/1/6 150/1/6 151/1/6
f 151/1/6 150/1/6 152/1/6
f 153/4/6 154/4/6 155/4/6
f 155/4/6 154/4/6 156/4/6
f 157/2/6 158/2/6 159/2/6
f 159/2/6 158/2/6 160/2/6
f 161/3/6 162/3/6 165/3/6
f 165/3/6 162/3/6 166/3/6
f 163/3/6 164/3/6 167/3/6
f 167/3/6 164/3/6 168/3/6
f 169/5/6 170/5/6 173/5/6
f 173/5/6 170/5/6 174/5/6
f 171/5/6 172/5/6 175/5/6
f 175/5/6 172/5/6 176/5/6
f 177/4/6 178/4/6 179/4/6
f 179/4/6 178/4/6 180/4/6
