# MagicaVoxel @ Ephtracy

# group
o 

# material
mtllib вода навколо замка.mtl
usemtl palette

# normals
vn -1 0 0
vn 1 0 0
vn 0 0 1
vn 0 0 -1
vn 0 -1 0
vn 0 1 0

# texcoords
vt 0.0527344 0.5
vt 0.220703 0.5
vt 0.306641 0.5
vt 0.447266 0.5
vt 0.634766 0.5

# verts
v -3 0 -0.9
v -3 0 -1
v -3 0 -1.9
v -3 0 -2
v -3 0.2 -0.9
v -3 0.2 -1
v -3 0.2 -1.9
v -3 0.2 -2
v 3 0 -0.9
v 3 0 -1
v 3 0 -1.9
v 3 0 -2
v 3 0.2 -0.9
v 3 0.2 -1
v 3 0.2 -1.9
v 3 0.2 -2
v -3 0 -0.9
v -3 0.2 -0.9
v 3 0 -0.9
v 3 0.2 -0.9
v -3 0 -2
v -3 0.2 -2
v 3 0 -2
v 3 0.2 -2
v -3 0 -0.9
v 3 0 -0.9
v -3 0 -1
v 3 0 -1
v -3 0 -1.9
v 3 0 -1.9
v -3 0 -2
v 3 0 -2
v -3 0.2 -0.9
v 3 0.2 -0.9
v -3 0.2 -1
v -1.6 0.2 -1
v -1.5 0.2 -1
v 0.7 0.2 -1
v 0.8 0.2 -1
v 0.9 0.2 -1
v 2.1 0.2 -1
v 2.2 0.2 -1
v 2.3 0.2 -1
v 3 0.2 -1
v -2.8 0.2 -1.1
v -2.7 0.2 -1.1
v -1.5 0.2 -1.1
v -1.2 0.2 -1.1
v -0.4 0.2 -1.1
v -0.3 0.2 -1.1
v -0.2 0.2 -1.1
v 0.9 0.2 -1.1
v 1.1 0.2 -1.1
v -2.7 0.2 -1.2
v -2.4 0.2 -1.2
v -1.5 0.2 -1.2
v -1.3 0.2 -1.2
v -0.2 0.2 -1.2
v -0.0999999 0.2 -1.2
v 0.8 0.2 -1.2
v 1 0.2 -1.2
v 1.9 0.2 -1.2
v 2.1 0.2 -1.2
v -2.7 0.2 -1.3
v -2.5 0.2 -1.3
v -2.1 0.2 -1.3
v -2 0.2 -1.3
v -1.9 0.2 -1.3
v -1.6 0.2 -1.3
v -1.4 0.2 -1.3
v -0.3 0.2 -1.3
v -0.0999999 0.2 -1.3
v 0.7 0.2 -1.3
v 0.9 0.2 -1.3
v 2 0.2 -1.3
v 2.2 0.2 -1.3
v 2.3 0.2 -1.3
v -2.8 0.2 -1.4
v -2.6 0.2 -1.4
v -1.9 0.2 -1.4
v -1.8 0.2 -1.4
v -0.7 0.2 -1.4
v -0.6 0.2 -1.4
v -0.5 0.2 -1.4
v -0.4 0.2 -1.4
v -0.2 0.2 -1.4
v 1.4 0.2 -1.4
v 1.5 0.2 -1.4
v 1.6 0.2 -1.4
v 2 0.2 -1.4
v 2.2 0.2 -1.4
v 2.5 0.2 -1.4
v 2.8 0.2 -1.4
v -2 0.2 -1.5
v -1.8 0.2 -1.5
v -1.4 0.2 -1.5
v -1.3 0.2 -1.5
v -1.2 0.2 -1.5
v 0.4 0.2 -1.5
v 0.5 0.2 -1.5
v 0.6 0.2 -1.5
v 1.6 0.2 -1.5
v 1.7 0.2 -1.5
v 1.9 0.2 -1.5
v 2 0.2 -1.5
v 2.6 0.2 -1.5
v 2.8 0.2 -1.5
v -2.6 0.2 -1.6
v -2.5 0.2 -1.6
v -2.4 0.2 -1.6
v -2.1 0.2 -1.6
v -1.9 0.2 -1.6
v -0.9 0.2 -1.6
v -0.7 0.2 -1.6
v -0.2 0.2 -1.6
v -0.0999999 0.2 -1.6
v 0.3 0.2 -1.6
v 0.4 0.2 -1.6
v 0.9 0.2 -1.6
v 1 0.2 -1.6
v 1.1 0.2 -1.6
v 1.5 0.2 -1.6
v 1.7 0.2 -1.6
v 2.7 0.2 -1.6
v 2.8 0.2 -1.6
v -0.8 0.2 -1.7
v -0.6 0.2 -1.7
v -0.5 0.2 -1.7
v 0.3 0.2 -1.7
v 0.5 0.2 -1.7
v 1.4 0.2 -1.7
v 1.6 0.2 -1.7
v 2.3 0.2 -1.7
v 2.5 0.2 -1.7
v 0.4 0.2 -1.8
v 0.6 0.2 -1.8
v 2.3 0.2 -1.8
v 2.6 0.2 -1.8
v 2.7 0.2 -1.8
v -3 0.2 -1.9
v -1.9 0.2 -1.9
v -1.8 0.2 -1.9
v -0.9 0.2 -1.9
v -0.8 0.2 -1.9
v 0.3 0.2 -1.9
v 0.4 0.2 -1.9
v 1.6 0.2 -1.9
v 1.7 0.2 -1.9
v 3 0.2 -1.9
v -3 0.2 -2
v 3 0.2 -2

# faces
f 5/1/1 2/1/1 1/1/1
f 6/3/1 3/3/1 2/3/1
f 6/1/1 2/1/1 5/1/1
f 7/2/1 4/2/1 3/2/1
f 7/3/1 3/3/1 6/3/1
f 8/2/1 4/2/1 7/2/1
f 9/1/2 10/1/2 13/1/2
f 10/3/2 11/3/2 14/3/2
f 13/1/2 10/1/2 14/1/2
f 11/2/2 12/2/2 15/2/2
f 14/3/2 11/3/2 15/3/2
f 15/2/2 12/2/2 16/2/2
f 19/1/3 18/1/3 17/1/3
f 20/1/3 18/1/3 19/1/3
f 21/2/4 22/2/4 23/2/4
f 23/2/4 22/2/4 24/2/4
f 27/1/5 26/1/5 25/1/5
f 28/1/5 26/1/5 27/1/5
f 29/3/5 28/3/5 27/3/5
f 30/3/5 28/3/5 29/3/5
f 31/2/5 30/2/5 29/2/5
f 32/2/5 30/2/5 31/2/5
f 33/1/6 34/1/6 35/1/6
f 35/1/6 34/1/6 36/1/6
f 36/1/6 34/1/6 37/1/6
f 37/1/6 34/1/6 38/1/6
f 38/1/6 34/1/6 39/1/6
f 39/1/6 34/1/6 40/1/6
f 40/1/6 34/1/6 41/1/6
f 41/1/6 34/1/6 42/1/6
f 42/1/6 34/1/6 43/1/6
f 43/1/6 34/1/6 44/1/6
f 35/3/6 36/3/6 45/3/6
f 45/3/6 36/3/6 46/3/6
f 36/5/6 37/5/6 47/5/6
f 37/3/6 38/3/6 47/3/6
f 47/3/6 38/3/6 48/3/6
f 48/3/6 38/3/6 49/3/6
f 49/3/6 38/3/6 50/3/6
f 50/3/6 38/3/6 51/3/6
f 39/4/6 40/4/6 52/4/6
f 40/3/6 41/3/6 52/3/6
f 52/3/6 41/3/6 53/3/6
f 46/3/6 36/3/6 54/3/6
f 45/5/6 46/5/6 54/5/6
f 54/3/6 36/3/6 55/3/6
f 36/5/6 47/5/6 56/5/6
f 47/4/6 48/4/6 56/4/6
f 56/4/6 48/4/6 57/4/6
f 51/3/6 38/3/6 58/3/6
f 50/4/6 51/4/6 58/4/6
f 58/3/6 38/3/6 59/3/6
f 52/4/6 53/4/6 60/4/6
f 38/5/6 39/5/6 60/5/6
f 39/4/6 52/4/6 60/4/6
f 60/4/6 53/4/6 61/4/6
f 53/3/6 41/3/6 62/3/6
f 41/5/6 42/5/6 63/5/6
f 62/3/6 41/3/6 63/3/6
f 54/4/6 55/4/6 64/4/6
f 45/5/6 54/5/6 64/5/6
f 64/4/6 55/4/6 65/4/6
f 55/3/6 36/3/6 66/3/6
f 66/3/6 36/3/6 67/3/6
f 67/3/6 36/3/6 68/3/6
f 56/5/6 57/5/6 69/5/6
f 68/3/6 36/3/6 69/3/6
f 36/5/6 56/5/6 69/5/6
f 69/5/6 57/5/6 70/5/6
f 58/4/6 59/4/6 71/4/6
f 49/5/6 50/5/6 71/5/6
f 50/4/6 58/4/6 71/4/6
f 59/3/6 38/3/6 72/3/6
f 71/4/6 59/4/6 72/4/6
f 38/5/6 60/5/6 73/5/6
f 72/3/6 38/3/6 73/3/6
f 60/5/6 61/5/6 73/5/6
f 73/5/6 61/5/6 74/5/6
f 62/5/6 63/5/6 75/5/6
f 42/4/6 43/4/6 76/4/6
f 75/5/6 63/5/6 76/5/6
f 63/5/6 42/5/6 76/5/6
f 43/3/6 44/3/6 77/3/6
f 76/4/6 43/4/6 77/4/6
f 35/3/6 45/3/6 78/3/6
f 45/5/6 64/5/6 78/5/6
f 64/5/6 65/5/6 78/5/6
f 78/5/6 65/5/6 79/5/6
f 67/4/6 68/4/6 80/4/6
f 69/3/6 70/3/6 80/3/6
f 68/3/6 69/3/6 80/3/6
f 80/3/6 70/3/6 81/3/6
f 48/3/6 49/3/6 82/3/6
f 82/3/6 49/3/6 83/3/6
f 83/3/6 49/3/6 84/3/6
f 49/5/6 71/5/6 85/5/6
f 84/3/6 49/3/6 85/3/6
f 71/5/6 72/5/6 85/5/6
f 85/5/6 72/5/6 86/5/6
f 53/3/6 62/3/6 87/3/6
f 87/3/6 62/3/6 88/3/6
f 88/3/6 62/3/6 89/3/6
f 62/5/6 75/5/6 90/5/6
f 75/4/6 76/4/6 90/4/6
f 76/3/6 77/3/6 91/3/6
f 90/4/6 76/4/6 91/4/6
f 77/3/6 44/3/6 92/3/6
f 91/3/6 77/3/6 92/3/6
f 92/3/6 44/3/6 93/3/6
f 66/5/6 67/5/6 94/5/6
f 67/4/6 80/4/6 94/4/6
f 80/4/6 81/4/6 94/4/6
f 81/3/6 70/3/6 95/3/6
f 94/4/6 81/4/6 95/4/6
f 70/5/6 57/5/6 96/5/6
f 95/3/6 70/3/6 96/3/6
f 57/4/6 48/4/6 97/4/6
f 96/5/6 57/5/6 97/5/6
f 48/3/6 82/3/6 98/3/6
f 97/4/6 48/4/6 98/4/6
f 73/3/6 74/3/6 99/3/6
f 72/3/6 73/3/6 99/3/6
f 99/3/6 74/3/6 100/3/6
f 100/3/6 74/3/6 101/3/6
f 89/3/6 62/3/6 102/3/6
f 88/4/6 89/4/6 102/4/6
f 102/3/6 62/3/6 103/3/6
f 62/5/6 90/5/6 104/5/6
f 103/3/6 62/3/6 104/3/6
f 90/3/6 91/3/6 105/3/6
f 104/5/6 90/5/6 105/5/6
f 91/3/6 92/3/6 105/3/6
f 92/5/6 93/5/6 106/5/6
f 93/3/6 44/3/6 107/3/6
f 106/5/6 93/5/6 107/5/6
f 79/5/6 65/5/6 108/5/6
f 78/3/6 79/3/6 108/3/6
f 65/4/6 55/4/6 109/4/6
f 108/5/6 65/5/6 109/5/6
f 55/3/6 66/3/6 110/3/6
f 109/4/6 55/4/6 110/4/6
f 94/5/6 95/5/6 111/5/6
f 110/3/6 66/3/6 111/3/6
f 66/5/6 94/5/6 111/5/6
f 111/5/6 95/5/6 112/5/6
f 95/3/6 96/3/6 113/3/6
f 98/3/6 82/3/6 113/3/6
f 97/3/6 98/3/6 113/3/6
f 96/3/6 97/3/6 113/3/6
f 82/5/6 83/5/6 114/5/6
f 113/3/6 82/3/6 114/3/6
f 86/5/6 72/5/6 115/5/6
f 84/3/6 85/3/6 115/3/6
f 85/3/6 86/3/6 115/3/6
f 72/3/6 99/3/6 116/3/6
f 115/5/6 72/5/6 116/5/6
f 116/3/6 99/3/6 117/3/6
f 99/4/6 100/4/6 118/4/6
f 117/3/6 99/3/6 118/3/6
f 101/3/6 74/3/6 119/3/6
f 74/5/6 61/5/6 119/5/6
f 61/4/6 53/4/6 120/4/6
f 119/5/6 61/5/6 120/5/6
f 53/3/6 87/3/6 121/3/6
f 120/4/6 53/4/6 121/4/6
f 102/4/6 103/4/6 122/4/6
f 88/4/6 102/4/6 122/4/6
f 87/5/6 88/5/6 122/5/6
f 103/3/6 104/3/6 123/3/6
f 122/4/6 103/4/6 123/4/6
f 104/3/6 105/3/6 123/3/6
f 106/4/6 107/4/6 124/4/6
f 107/3/6 44/3/6 125/3/6
f 124/4/6 107/4/6 125/4/6
f 113/5/6 114/5/6 126/5/6
f 83/4/6 84/4/6 127/4/6
f 126/5/6 114/5/6 127/5/6
f 114/5/6 83/5/6 127/5/6
f 115/3/6 116/3/6 128/3/6
f 127/4/6 84/4/6 128/4/6
f 116/3/6 117/3/6 128/3/6
f 84/3/6 115/3/6 128/3/6
f 117/4/6 118/4/6 129/4/6
f 128/3/6 117/3/6 129/3/6
f 118/4/6 100/4/6 130/4/6
f 129/4/6 118/4/6 130/4/6
f 100/5/6 101/5/6 130/5/6
f 119/3/6 120/3/6 131/3/6
f 87/5/6 122/5/6 131/5/6
f 121/3/6 87/3/6 131/3/6
f 120/3/6 121/3/6 131/3/6
f 122/5/6 123/5/6 131/5/6
f 131/5/6 123/5/6 132/5/6
f 123/3/6 105/3/6 133/3/6
f 105/3/6 92/3/6 133/3/6
f 92/5/6 106/5/6 134/5/6
f 133/3/6 92/3/6 134/3/6
f 129/5/6 130/5/6 135/5/6
f 101/3/6 119/3/6 136/3/6
f 135/5/6 130/5/6 136/5/6
f 130/5/6 101/5/6 136/5/6
f 131/3/6 132/3/6 136/3/6
f 119/3/6 131/3/6 136/3/6
f 133/5/6 134/5/6 137/5/6
f 123/3/6 133/3/6 137/3/6
f 106/4/6 124/4/6 138/4/6
f 137/5/6 134/5/6 138/5/6
f 134/5/6 106/5/6 138/5/6
f 124/3/6 125/3/6 139/3/6
f 138/4/6 124/4/6 139/4/6
f 109/3/6 110/3/6 140/3/6
f 110/3/6 111/3/6 140/3/6
f 78/3/6 108/3/6 140/3/6
f 111/3/6 112/3/6 140/3/6
f 108/3/6 109/3/6 140/3/6
f 35/3/6 78/3/6 140/3/6
f 112/5/6 95/5/6 141/5/6
f 140/3/6 112/3/6 141/3/6
f 95/3/6 113/3/6 142/3/6
f 141/5/6 95/5/6 142/5/6
f 113/5/6 126/5/6 143/5/6
f 142/3/6 113/3/6 143/3/6
f 128/3/6 129/3/6 144/3/6
f 143/5/6 126/5/6 144/5/6
f 126/3/6 127/3/6 144/3/6
f 127/3/6 128/3/6 144/3/6
f 129/5/6 135/5/6 145/5/6
f 144/3/6 129/3/6 145/3/6
f 135/3/6 136/3/6 146/3/6
f 145/5/6 135/5/6 146/5/6
f 136/3/6 132/3/6 147/3/6
f 146/3/6 136/3/6 147/3/6
f 132/5/6 123/5/6 147/5/6
f 123/3/6 137/3/6 148/3/6
f 147/5/6 123/5/6 148/5/6
f 137/3/6 138/3/6 148/3/6
f 138/3/6 139/3/6 148/3/6
f 139/3/6 125/3/6 149/3/6
f 148/3/6 139/3/6 149/3/6
f 125/3/6 44/3/6 149/3/6
f 143/2/6 144/2/6 150/2/6
f 141/2/6 142/2/6 150/2/6
f 148/2/6 149/2/6 150/2/6
f 140/2/6 141/2/6 150/2/6
f 145/2/6 146/2/6 150/2/6
f 142/2/6 143/2/6 150/2/6
f 144/2/6 145/2/6 150/2/6
f 146/2/6 147/2/6 150/2/6
f 147/2/6 148/2/6 150/2/6
f 150/2/6 149/2/6 151/2/6
